<!-- Created with Inkscape (http://www.inkscape.org/) -->
<svg width="5.3157mm" height="6.8792mm" version="1.1" viewBox="0 0 5.3157 6.8792" xmlns="http://www.w3.org/2000/svg">
 <g transform="translate(-110.37 -82.276)">
  <polygon class="st0" transform="matrix(.019543 0 0 .019543 117.01 81.299)" points="-228 66 -260 66 -260 242 -292 210 -324 210 -324 242 -308 258 -244 386 -116 386 -100 354.1 -84 306 -84 194 -100 178 -132 162 -180 146 -212 146" fill="#e4002b"/>
  <path class="st1" d="m111.62 82.589h0.31269v3.4396h-0.31269v-0.31269h-0.3127v-0.31269h0.3127zm3.7523 2.5015v2.1888h0.31269v-2.1888zm-5.003 0v0.93807h0.31269v-0.62538h0.62537v-0.31269zm0.93806 1.8761v-0.62538h-0.31268v0.62538zm0.3127 0.62538v-0.62538h-0.3127v0.62538zm0.31269 0.62538v0.93807h3.1269v-0.93611h-0.31269v0.62342h-2.5015v-0.62538h-0.31269v-0.62538h-0.31269v0.62538zm3.1269 0h0.31269v-0.93807h-0.31269zm-4.065-1.8761v-0.31269h-0.31269v0.31269zm4.065-1.5634v0.31269h0.31269v-0.31269zm-0.62537-0.31269v1.2508h0.31268v-0.93807h0.31269v-0.31269zm-0.93808-0.31269v1.2508h0.31269v-0.93807h0.62539v-0.31269zm-0.62538-0.31269v-1.2508h-0.31268v2.8142h0.31268v-1.2508h0.62538v-0.31269zm-0.93806-1.5634v0.31269h0.62538v-0.31269z" fill="#e8e8e8" stroke-width=".019543"/>
 </g>
</svg>
